<?xml version="1.0" encoding="UTF-8"?>
<svg id="Layer_1" xmlns="http://www.w3.org/2000/svg" version="1.1" viewBox="0 0 950 207">
  <!-- Generator: Adobe Illustrator 29.1.0, SVG Export Plug-In . SVG Version: 2.1.0 Build 142)  -->
  <defs>
    <style>
      .st0 {
        fill: none;
      }

      .st1 {
        fill: #4563ff;
      }
    </style>
  </defs>
  <path class="st1" d="M925.2,24V6.6h.7l6.7,17.3h2.2l6.7-17.3v17.3h3V3.7h-4.4l-5.9,16.6-6.7-16.6h-4.4v20.3h2.1ZM866.7,124.5c.7-2.9,3.7-7.2,7.4-13.7.7-1.4.7-2.2,1.5-2.9l21.5-37.6h47.4l-37.8,54.2,40.8,76.6h-46.7l-34.1-71.6v71.6h-42.2V3.7h42.2v120.7h0ZM812.6,107.8c-3.7-2.2-10.6-6.5-19.2-6.5s-14.1,2.9-19.3,9.4c-4.4,5.8-7.4,13.7-7.4,23.9s3,19.5,7.4,25.3c5.2,5.8,11.9,8.7,20.8,8.7s14.8-4.4,17.8-7.3v34.7c-4.4,2.2-7.8,4-13,5.5-4.4,1.4-10.7,1.7-15.9,1.7-17.8,0-32.6-5.8-43-18.1s-15.6-28.9-15.6-49.9,5.2-36.9,15.6-49.2c11.1-12.3,25.2-18.1,43-18.1s24.4,3.6,28.9,5v34.9ZM710.3,201.1h-40v-19.5c-4.4,7.2-9.6,13-15.6,16.6-5.2,3.6-11.9,5.1-18.5,5.1-14.8,0-25.9-5.8-33.4-17.3-8.2-11.6-11.9-28.2-11.9-49.9s3.7-37.6,11.9-49.2c8.2-12.3,19.3-18.1,33.4-18.1s29.6,14.5,34.1,21.7v-20.2h40v130.8h0ZM670.3,133.9c0-12.3-1.5-21-4.4-26.7-3.7-5.8-8.9-8.7-15.6-8.7s-10.4,2.9-13.3,8.7c-3,5.1-3.7,14.5-3.7,26.7s1.5,21.7,4.4,28.2c3,5.8,7.4,9.4,14.1,9.4s11.1-3.6,14.1-9.4c3-5.8,4.4-15.2,4.4-28.2ZM407.2,201.1V70.2h42.2v130.8h-42.2ZM324.2,201.1V70.2h39.3v23.1c3.7-8.7,8.2-14.5,13.3-18.8,5.9-4.3,13.3-6.5,20.8-6.5v34h-2.2c-11.1,0-19.3,2.9-23,7.2-3.7,4.3-5.9,14.5-5.9,30.4v61.4h-42.3ZM229.3,145.4v.7c0,10.1,2.2,17.3,6.7,23.1,3.7,5.1,9.6,8,17,8s8.9-1.4,12.6-4.3c3-2.2,5.9-5.8,8.2-10.8h36.3c-3.7,13-10.4,23.1-20.8,30.4-10.4,7.2-23.7,10.8-38.5,10.8s-34.1-5.8-45.2-18.1c-11.1-12.3-17-28.2-17-49.2s5.9-37.6,17-49.9,25.9-18.1,45.2-18.1,35.6,5.8,45.2,18.1c10.4,11.6,15.6,29.6,15.6,52.8v6.5h-82.3ZM274.5,124.5c0-9.4-2.2-16.6-5.9-21-3.7-4.3-8.9-6.5-16.3-6.5s-13.3,2.2-17,6.5c-3.7,5.1-5.9,12.3-5.9,21h45.2-.1ZM128.5,201.1v-102.6h-17v-28.2h17v-37.6h41.5v37.6h17v28.2h-17v102.6h-41.5ZM6.2,154.1c5.9,4.3,11.1,7.2,17,9.4,5.2,2.2,11.1,2.9,16.3,2.9,8.2,0,14.1-1.4,18.5-5.1,4.4-2.9,6.7-8,6.7-13.7s-5.9-15.9-18.5-23.9c-3-2.9-5.2-4.3-7.4-5.8-13.3-10.8-23-20.2-28.2-28.9-5.2-8.7-8.2-18.1-8.2-28.9,0-16.6,5.9-30.4,17-40.5C30.7,9.5,44.7,3.7,62.5,3.7s31.8,6.5,38.5,10.1v34c-8.2-2.9-14.1-5.8-18.5-6.5-4.4-1.4-8.9-2.2-11.9-2.2-6.7,0-11.9,2.2-16.3,5.8-3.7,2.9-5.9,8-5.9,13.7s1.5,9.4,4.4,13.7c3,4.3,7.2,7.8,22.2,18.8s24.5,21,28.9,28.2,6.7,16.6,6.7,26.7c0,18.1-5.9,31.8-17.8,41.9-11.1,10.1-27.4,15.2-47.4,15.2s-14.8-.7-21.5-2.2c-6.7-1.4-12.5-3.6-17.7-6.5v-40.3ZM911.2,24h3V6.6h5.9v-2.9h-15.6v2.9h6.7v17.3h0Z"/>
  <path class="st1" d="M428.7,6.6c-13.9,0-25.2,11-25.2,24.6s11.3,24.6,25.2,24.6,25.2-11,25.2-24.6-11.3-24.6-25.2-24.6ZM428.7,39.2c-4.7,0-8.5-3.6-8.5-8s3.8-8,8.5-8,8.5,3.6,8.5,8-3.8,8-8.5,8Z"/>
  <g>
    <path class="st0" d="M519,120c0,0,.1,0,0,0h0Z"/>
    <polygon class="st1" points="474.6 201.1 474.6 201 474.5 201 474.6 201.1"/>
    <path class="st1" d="M577.6,20.3c-11.9-9.4-30.4-13.7-55.6-13.7h-47.4v194.4h44.4v-80.3h9.6c21.5,0,37.8-5.1,49.7-15.2,11.9-10.1,17.8-23.9,17.8-42.6s-5.9-33.2-18.5-42.6ZM519,120h0c.1,0,0,0,0,0ZM545.7,84c-5.2,5-12.6,7.2-22.2,7.2h-4.4v-54.9h4.4c10.3,0,17.8,2.2,22.2,6.5,5.2,5.1,7.4,12.4,7.4,21s-2.2,15.9-7.4,20.2Z"/>
  </g>
</svg>